<?xml version="1.0" encoding="UTF-8"?>
<svg id="Layer_1" xmlns="http://www.w3.org/2000/svg" version="1.1" viewBox="0 0 612 792">
  <!-- Generator: Adobe Illustrator 30.2.1, SVG Export Plug-In . SVG Version: 2.1.1 Build 1)  -->
  <polygon points="224.5 404.55 224.5 415.77 258.17 415.77 258.17 421.39 224.5 421.39 224.5 432.61 224.5 449.45 230.11 449.45 235.72 449.45 269.4 449.45 269.4 438.23 235.72 438.23 235.72 432.61 269.4 432.61 269.4 421.39 269.4 415.77 269.4 404.55 258.17 404.55 224.5 404.55"/>
  <path d="M314.3,410.16h-5.61v-5.61h-33.68v44.9h33.68v-5.61h5.61v-5.61h5.61v-22.45h-5.61v-5.61ZM308.69,438.23h-22.45v-22.45h22.45v22.45Z"/>
  <polygon points="364.82 415.77 364.82 410.16 359.2 410.16 359.2 404.55 336.75 404.55 336.75 410.16 331.14 410.16 331.14 415.77 325.53 415.77 325.53 438.23 325.53 443.84 325.53 449.45 336.75 449.45 336.75 438.23 336.75 432.74 336.75 415.77 359.2 415.77 359.2 432.74 359.2 438.23 359.2 449.45 370.43 449.45 370.43 438.23 370.43 415.77 364.82 415.77"/>
  <polygon points="381.66 404.55 381.66 410.16 381.66 412.01 381.66 415.77 376.04 415.77 376.04 438.23 376.04 443.84 376.04 449.45 387.27 449.45 387.27 438.23 387.27 432.74 387.27 415.77 387.27 412.01 387.27 410.16 387.27 404.55 381.66 404.55"/>
</svg>