<?xml version="1.0" encoding="UTF-8"?>
<svg id="Layer_1" xmlns="http://www.w3.org/2000/svg" version="1.1" viewBox="0 0 612 792">
  <!-- Generator: Adobe Illustrator 30.2.1, SVG Export Plug-In . SVG Version: 2.1.1 Build 1)  -->
  <defs>
    <style>
      .st0 {
        fill: #fcb017;
      }

      .st1, .st2 {
        fill: #fff;
      }

      .st1, .st2, .st3 {
        stroke: #231f20;
        stroke-miterlimit: 10;
      }

      .st4 {
        fill: #bcbcbc;
      }

      .st2 {
        stroke-width: 1.5px;
      }

      .st3 {
        fill: none;
        stroke-width: .88px;
      }
    </style>
  </defs>
  <g>
    <polygon class="st0" points="206.81 387.48 213.16 387.48 213.16 406.95 216.31 406.95 216.31 387.48 222.66 387.48 222.66 384.48 206.81 384.48 206.81 387.48"/>
    <path class="st0" d="M229.32,390.68c-1.22,0-2.32.2-3.32.61s-1.8.98-2.4,1.71l2.3,1.58c.48-.36,1.03-.64,1.65-.83s1.23-.29,1.86-.29c1.03,0,1.83.29,2.39.87s.84,1.4.84,2.45v.68h-4.42c-1.8,0-3.16.39-4.06,1.18s-1.35,1.98-1.35,3.58c0,1.68.49,2.93,1.48,3.74s2.46,1.22,4.43,1.22c.67,0,1.27-.07,1.8-.21s1-.35,1.41-.63c.28-.19.49-.47.71-.73v1.33h3v-10.31c0-1.9-.55-3.36-1.65-4.4s-2.66-1.56-4.67-1.56ZM231.75,404.23c-.6.26-1.49.39-2.69.39-1.09,0-1.91-.2-2.46-.59s-.82-.99-.82-1.81c0-.75.21-1.31.62-1.68s1.03-.55,1.84-.55h4.4v3.03c0,.55-.3.95-.9,1.21Z"/>
    <path class="st0" d="M247.78,390.68c-.96,0-1.83.26-2.61.77-.63.41-1.14,1-1.58,1.69v-8.65h-3.15v22.47h3.15v-2.14c.35.68.8,1.26,1.42,1.66.74.48,1.61.72,2.61.72,1.76,0,3.13-.57,4.1-1.7s1.45-2.73,1.45-4.78v-3.49c0-2.08-.47-3.69-1.41-4.83s-2.27-1.71-3.99-1.71ZM250.02,400.71c0,1.15-.29,2.05-.86,2.68s-1.38.95-2.42.95c-.67,0-1.24-.13-1.71-.39s-.83-.63-1.07-1.11-.37-1.07-.37-1.76v-4.37c0-.68.12-1.26.37-1.73s.61-.83,1.07-1.08,1.04-.37,1.71-.37c1.04,0,1.85.32,2.42.97s.86,1.56.86,2.74v3.48Z"/>
    <path class="st4" d="M366.26,398.17c-.58-.31-1.21-.52-1.89-.63s-1.36-.18-2.03-.22c-.7-.05-1.35-.11-1.96-.17s-1.1-.2-1.47-.41-.56-.56-.56-1.04c0-.73.27-1.28.8-1.65s1.34-.55,2.41-.55c.74,0,1.5.13,2.28.39s1.57.64,2.37,1.16l1.9-2.3c-.95-.7-1.96-1.22-3.04-1.56s-2.25-.51-3.51-.51c-2.06,0-3.61.42-4.65,1.27s-1.56,2.12-1.56,3.82c0,.94.16,1.68.47,2.24s.73.98,1.26,1.26,1.11.48,1.75.59,1.28.19,1.93.24c.77.05,1.5.12,2.17.19s1.22.24,1.64.49.63.67.63,1.27c0,.77-.31,1.35-.94,1.74s-1.56.58-2.81.58c-.83,0-1.68-.16-2.53-.49s-1.71-.82-2.59-1.48l-1.87,2.3c.92.83,1.96,1.46,3.11,1.88s2.45.63,3.87.63c2.25,0,3.93-.43,5.05-1.28s1.68-2.14,1.68-3.86c0-1.05-.18-1.88-.53-2.49s-.81-1.07-1.39-1.38Z"/>
    <path class="st4" d="M375.77,386.24h-3.15v4.67h-1.65v2.84h1.65v9.03c0,1.37.3,2.42.89,3.15s1.55,1.1,2.87,1.1h1.82v-3h-1.51c-.3,0-.53-.11-.68-.32s-.23-.52-.23-.9v-9.06h2.43v-2.84h-2.43v-4.67Z"/>
    <path class="st4" d="M388.25,390.68c-1.22,0-2.32.2-3.32.61s-1.8.98-2.4,1.71l2.3,1.58c.48-.36,1.03-.64,1.65-.83s1.23-.29,1.86-.29c1.03,0,1.83.29,2.39.87s.84,1.4.84,2.45v.68h-4.42c-1.8,0-3.16.39-4.06,1.18s-1.35,1.98-1.35,3.58c0,1.68.49,2.93,1.48,3.74s2.46,1.22,4.43,1.22c.67,0,1.27-.07,1.8-.21s1-.35,1.41-.63c.28-.19.49-.47.71-.73v1.33h3v-10.31c0-1.9-.55-3.36-1.65-4.4s-2.66-1.56-4.67-1.56ZM390.68,404.23c-.6.26-1.49.39-2.69.39-1.09,0-1.91-.2-2.46-.59s-.82-.99-.82-1.81c0-.75.21-1.31.62-1.68s1.03-.55,1.84-.55h4.4v3.03c0,.55-.3.95-.9,1.21Z"/>
    <path class="st4" d="M406.71,390.68c-.95,0-1.82.27-2.6.8-.64.43-1.15,1.04-1.58,1.74v-2.31h-3.15v16.04h3.15v-10.15c0-.98.28-1.74.83-2.3s1.33-.83,2.33-.83c.56,0,1.05.09,1.47.26s.77.43,1.05.77l2.06-2.78c-.44-.41-.96-.72-1.55-.94s-1.25-.32-1.99-.32Z"/>
    <path class="st4" d="M418.87,393.75v-2.84h-2.43v-4.67h-3.15v4.67h-1.65v2.84h1.65v9.03c0,1.37.3,2.42.89,3.15s1.55,1.1,2.87,1.1h1.82v-3h-1.51c-.3,0-.53-.11-.68-.32s-.23-.52-.23-.9v-9.06h2.43Z"/>
  </g>
  <rect class="st3" x="193.06" y="373.09" width="136.08" height="45.49" rx="8.95" ry="8.95"/>
  <rect class="st2" x="197.66" y="104.71" width="99.57" height="155.41" rx="33.55" ry="33.55"/>
  <rect class="st1" x="241.71" y="123.32" width="11.46" height="34.63" rx="3.68" ry="3.68"/>
  <path class="st0" d="M271.75,127.85c-7.06,0-12.78,5.72-12.78,12.78s5.72,12.78,12.78,12.78,12.78-5.72,12.78-12.78-5.72-12.78-12.78-12.78ZM271.75,148.37c-4.27,0-7.73-3.46-7.73-7.73s3.46-7.73,7.73-7.73,7.73,3.46,7.73,7.73-3.46,7.73-7.73,7.73Z"/>
  <g>
    <path class="st4" d="M338.97,139.78c-.58-.31-1.21-.52-1.89-.63s-1.36-.18-2.03-.22c-.7-.05-1.35-.11-1.96-.17s-1.1-.2-1.47-.41-.56-.56-.56-1.04c0-.73.27-1.28.8-1.65s1.34-.55,2.41-.55c.74,0,1.5.13,2.28.39s1.57.64,2.37,1.16l1.9-2.3c-.95-.7-1.96-1.22-3.04-1.56s-2.25-.51-3.51-.51c-2.06,0-3.61.42-4.65,1.27s-1.56,2.12-1.56,3.82c0,.94.16,1.68.47,2.24s.73.98,1.26,1.26,1.11.48,1.75.59,1.28.19,1.93.24c.77.05,1.5.12,2.17.19s1.22.24,1.64.49.63.67.63,1.27c0,.77-.31,1.35-.94,1.74s-1.56.58-2.81.58c-.83,0-1.68-.16-2.53-.49s-1.71-.82-2.59-1.48l-1.87,2.3c.92.83,1.96,1.46,3.11,1.88s2.45.63,3.87.63c2.25,0,3.93-.43,5.05-1.28s1.68-2.14,1.68-3.86c0-1.05-.18-1.88-.53-2.49s-.81-1.07-1.39-1.38Z"/>
    <path class="st4" d="M348.47,127.85h-3.15v4.67h-1.65v2.84h1.65v9.03c0,1.37.3,2.42.89,3.15s1.55,1.1,2.87,1.1h1.82v-3h-1.51c-.3,0-.53-.11-.68-.32s-.23-.52-.23-.9v-9.06h2.43v-2.84h-2.43v-4.67Z"/>
    <path class="st4" d="M360.96,132.29c-1.22,0-2.32.2-3.32.61s-1.8.98-2.4,1.71l2.3,1.58c.48-.36,1.03-.64,1.65-.83s1.23-.29,1.86-.29c1.03,0,1.83.29,2.39.87s.84,1.4.84,2.45v.68h-4.42c-1.8,0-3.16.39-4.06,1.18s-1.35,1.98-1.35,3.58c0,1.68.49,2.93,1.48,3.74s2.46,1.22,4.43,1.22c.67,0,1.27-.07,1.8-.21s1-.35,1.41-.63c.28-.19.49-.47.71-.73v1.33h3v-10.31c0-1.9-.55-3.36-1.65-4.4s-2.66-1.56-4.67-1.56ZM363.39,145.84c-.6.26-1.49.39-2.69.39-1.09,0-1.91-.2-2.46-.59s-.82-.99-.82-1.81c0-.75.21-1.31.62-1.68s1.03-.55,1.84-.55h4.4v3.03c0,.55-.3.95-.9,1.21Z"/>
    <path class="st4" d="M379.41,132.29c-.95,0-1.82.27-2.6.8-.64.43-1.15,1.04-1.58,1.74v-2.31h-3.15v16.04h3.15v-10.15c0-.98.28-1.74.83-2.3s1.33-.83,2.33-.83c.56,0,1.05.09,1.47.26s.77.43,1.05.77l2.06-2.78c-.44-.41-.96-.72-1.55-.94s-1.25-.32-1.99-.32Z"/>
    <path class="st4" d="M391.58,135.36v-2.84h-2.43v-4.67h-3.15v4.67h-1.65v2.84h1.65v9.03c0,1.37.3,2.42.89,3.15s1.55,1.1,2.87,1.1h1.82v-3h-1.51c-.3,0-.53-.11-.68-.32s-.23-.52-.23-.9v-9.06h2.43Z"/>
  </g>
  <path class="st0" d="M318.26,142.67h-36.26v-4.07h36.26c1.12,0,2.03.91,2.03,2.03h0c0,1.12-.91,2.03-2.03,2.03Z"/>
</svg>