<?xml version="1.0" encoding="UTF-8"?>
<svg id="Layer_1" xmlns="http://www.w3.org/2000/svg" version="1.1" viewBox="0 0 612 792">
  <!-- Generator: Adobe Illustrator 30.2.1, SVG Export Plug-In . SVG Version: 2.1.1 Build 1)  -->
  <defs>
    <style>
      .st0 {
        fill: #ee1c4e;
      }
    </style>
  </defs>
  <g>
    <polygon points="224.5 404.55 224.5 415.77 258.17 415.77 258.17 421.39 224.5 421.39 224.5 432.61 224.5 449.45 230.11 449.45 235.72 449.45 269.4 449.45 269.4 438.23 235.72 438.23 235.72 432.61 269.4 432.61 269.4 421.39 269.4 415.77 269.4 404.55 258.17 404.55 224.5 404.55"/>
    <path d="M314.3,410.16h-5.61v-5.61h-33.68v44.9h33.68v-5.61h5.61v-5.61h5.61v-22.45h-5.61v-5.61ZM308.69,438.23h-22.45v-22.45h22.45v22.45Z"/>
    <polygon points="364.82 415.77 364.82 410.16 359.2 410.16 359.2 404.55 336.75 404.55 336.75 410.16 331.14 410.16 331.14 415.77 325.53 415.77 325.53 438.23 325.53 443.84 325.53 449.45 336.75 449.45 336.75 438.23 336.75 432.74 336.75 415.77 359.2 415.77 359.2 432.74 359.2 438.23 359.2 449.45 370.43 449.45 370.43 438.23 370.43 415.77 364.82 415.77"/>
    <polygon points="381.66 404.55 381.66 410.16 381.66 412.01 381.66 415.77 376.04 415.77 376.04 438.23 376.04 443.84 376.04 449.45 387.27 449.45 387.27 438.23 387.27 432.74 387.27 415.77 387.27 412.01 387.27 410.16 387.27 404.55 381.66 404.55"/>
  </g>
  <polygon class="st0" points="261.75 493.56 224.5 472.05 224.5 515.07 261.75 493.56"/>
  <g>
    <path d="M273.06,496.61c-.54,0-1.03-.08-1.47-.24s-.83-.4-1.18-.71l.71-.87c.33.25.66.44.98.56s.64.19.96.19c.47,0,.83-.07,1.06-.22s.35-.37.35-.66c0-.23-.08-.39-.24-.48s-.37-.16-.62-.18-.53-.05-.82-.07c-.25-.02-.49-.05-.73-.09s-.46-.12-.66-.22-.36-.27-.48-.48-.18-.49-.18-.85c0-.64.2-1.13.59-1.45s.98-.48,1.76-.48c.48,0,.92.06,1.33.19s.79.33,1.15.59l-.72.87c-.3-.2-.6-.34-.9-.44s-.58-.15-.86-.15c-.41,0-.71.07-.91.21s-.3.35-.3.62c0,.18.07.32.21.4s.33.13.56.16.48.04.74.06c.25.02.51.04.77.08s.5.12.72.24.39.29.53.52.2.54.2.94c0,.65-.21,1.14-.64,1.46s-1.06.49-1.91.49Z"/>
    <path d="M276.66,491.52v-1.08h2.74v1.08h-2.74ZM278.71,496.55c-.5,0-.86-.14-1.09-.42s-.34-.68-.34-1.2v-6.27h1.2v6.28c0,.14.03.26.09.34s.14.12.26.12h.57v1.14h-.69Z"/>
    <path d="M282.99,496.61c-.75,0-1.31-.15-1.68-.46s-.56-.78-.56-1.42.17-1.06.51-1.36.85-.45,1.54-.45h1.73l.08.96h-1.8c-.31,0-.54.07-.7.21s-.23.35-.23.64c0,.31.1.54.31.69s.52.22.93.22c.45,0,.79-.05,1.02-.15s.34-.25.34-.46l.12.86c-.11.16-.24.3-.39.4s-.33.18-.54.24-.43.08-.68.08ZM284.48,496.52v-3.86c0-.4-.11-.71-.32-.93s-.51-.33-.91-.33c-.24,0-.47.04-.71.11s-.44.18-.62.31l-.87-.6c.23-.28.53-.49.91-.65s.8-.23,1.26-.23c.76,0,1.35.2,1.77.59s.63.95.63,1.67v3.91h-1.14Z"/>
    <path d="M287.43,496.52v-6.08h1.2v6.08h-1.2ZM290.77,491.88c-.11-.13-.24-.23-.4-.29s-.35-.1-.56-.1c-.38,0-.67.1-.88.31s-.31.5-.31.87l-.12-1.17c.18-.36.42-.64.72-.84s.63-.3.99-.3c.28,0,.53.04.75.12s.42.2.59.35l-.78,1.05Z"/>
    <path d="M292.08,491.52v-1.08h2.74v1.08h-2.74ZM294.13,496.55c-.5,0-.86-.14-1.09-.42s-.34-.68-.34-1.2v-6.27h1.2v6.28c0,.14.03.26.09.34s.14.12.26.12h.57v1.14h-.69Z"/>
  </g>
</svg>