<?xml version="1.0" encoding="UTF-8"?>
<svg id="Layer_1" xmlns="http://www.w3.org/2000/svg" version="1.1" viewBox="0 0 612 792">
  <!-- Generator: Adobe Illustrator 30.2.1, SVG Export Plug-In . SVG Version: 2.1.1 Build 1)  -->
  <defs>
    <style>
      .st0, .st1, .st2 {
        fill: #fff;
      }

      .st1 {
        stroke-width: .48px;
      }

      .st1, .st2 {
        stroke: #231f20;
        stroke-miterlimit: 10;
      }

      .st2 {
        stroke-width: .71px;
      }

      .st3 {
        fill: #ee1c4e;
      }
    </style>
  </defs>
  <g>
    <polygon points="224.5 404.55 224.5 415.77 258.17 415.77 258.17 421.39 224.5 421.39 224.5 432.61 224.5 449.45 230.11 449.45 235.72 449.45 269.4 449.45 269.4 438.23 235.72 438.23 235.72 432.61 269.4 432.61 269.4 421.39 269.4 415.77 269.4 404.55 258.17 404.55 224.5 404.55"/>
    <path d="M314.3,410.16h-5.61v-5.61h-33.68v44.9h33.68v-5.61h5.61v-5.61h5.61v-22.45h-5.61v-5.61ZM308.69,438.23h-22.45v-22.45h22.45v22.45Z"/>
    <polygon points="364.82 415.77 364.82 410.16 359.2 410.16 359.2 404.55 336.75 404.55 336.75 410.16 331.14 410.16 331.14 415.77 325.53 415.77 325.53 438.23 325.53 443.84 325.53 449.45 336.75 449.45 336.75 438.23 336.75 432.74 336.75 415.77 359.2 415.77 359.2 432.74 359.2 438.23 359.2 449.45 370.43 449.45 370.43 438.23 370.43 415.77 364.82 415.77"/>
    <polygon points="381.66 404.55 381.66 410.16 381.66 412.01 381.66 415.77 376.04 415.77 376.04 438.23 376.04 443.84 376.04 449.45 387.27 449.45 387.27 438.23 387.27 432.74 387.27 415.77 387.27 412.01 387.27 410.16 387.27 404.55 381.66 404.55"/>
  </g>
  <g>
    <path class="st3" d="M282.37,497.47v-6.08h1.2v6.08h-1.2ZM285.71,492.83c-.11-.13-.24-.23-.4-.29s-.35-.1-.56-.1c-.38,0-.67.1-.88.31s-.31.5-.31.87l-.12-1.17c.18-.36.42-.64.72-.84s.63-.3.99-.3c.28,0,.53.04.75.12s.42.2.59.35l-.78,1.05Z"/>
    <path class="st3" d="M287.49,490.14v-1.2h1.2v1.2h-1.2ZM287.49,497.47v-6.08h1.2v6.08h-1.2Z"/>
    <path class="st3" d="M292.43,497.57c-.67,0-1.19-.22-1.56-.65s-.55-1.04-.55-1.83v-1.34c0-.79.18-1.4.54-1.83s.86-.65,1.51-.65c.36,0,.69.09.99.28s.54.45.72.79l-.12,1.24c0-.26-.05-.48-.14-.66s-.23-.32-.41-.42-.39-.14-.65-.14c-.39,0-.7.12-.92.37s-.33.59-.33,1.04v1.32c0,.44.11.78.33,1.02s.52.36.92.36c.25,0,.47-.05.65-.15s.31-.24.41-.43.14-.41.14-.67l.08,1.28c-.11.27-.3.52-.57.74s-.62.33-1.05.33ZM292.54,499.94c-.46,0-.87-.08-1.23-.25s-.64-.41-.84-.72l.81-.73c.16.21.34.38.56.5s.44.18.68.18c.46,0,.81-.13,1.06-.38s.38-.61.38-1.07v-6.08h1.2v5.9c0,.84-.23,1.5-.68,1.96s-1.1.69-1.93.69Z"/>
    <path class="st3" d="M296.97,497.47v-8.52h1.2v8.52h-1.2ZM300.66,497.47v-3.69c0-.43-.11-.76-.33-1s-.53-.35-.94-.35-.69.1-.91.3-.32.49-.32.86l-.12-1.17c.19-.36.43-.64.74-.83s.64-.3,1-.3c.66,0,1.17.22,1.53.65s.54,1.04.54,1.83v3.69h-1.2Z"/>
    <path class="st3" d="M303.2,492.46v-1.08h2.74v1.08h-2.74ZM305.25,497.5c-.5,0-.86-.14-1.09-.42s-.34-.68-.34-1.2v-6.27h1.2v6.28c0,.14.03.26.09.34s.14.12.26.12h.57v1.14h-.69Z"/>
    <path class="st3" d="M313.26,497.55c-.84,0-1.48-.23-1.94-.69s-.69-1.11-.69-1.95v-1c0-.83.23-1.48.69-1.93s1.11-.68,1.94-.68c.48,0,.91.08,1.29.25s.69.41.91.72l-.86.77c-.17-.2-.37-.35-.6-.45s-.47-.16-.73-.16c-.46,0-.82.13-1.07.39s-.38.62-.38,1.09v1c0,.48.13.85.38,1.11s.61.39,1.07.39c.25,0,.5-.06.73-.17s.43-.27.6-.48l.86.83c-.23.3-.53.54-.92.71s-.81.25-1.29.25Z"/>
    <path class="st3" d="M317.98,488.95v6.95c0,.14.03.26.1.34s.16.12.27.12h.56v1.14h-.7c-.45,0-.8-.14-1.05-.42s-.38-.68-.38-1.19v-6.94h1.2Z"/>
    <path class="st3" d="M320.26,490.14v-1.2h1.2v1.2h-1.2ZM320.26,497.47v-6.08h1.2v6.08h-1.2Z"/>
    <path class="st3" d="M325.73,497.55c-.84,0-1.48-.23-1.94-.69s-.69-1.11-.69-1.95v-1c0-.83.23-1.48.69-1.93s1.11-.68,1.94-.68c.48,0,.91.08,1.29.25s.69.41.91.72l-.86.77c-.17-.2-.37-.35-.6-.45s-.47-.16-.73-.16c-.46,0-.82.13-1.07.39s-.38.62-.38,1.09v1c0,.48.13.85.38,1.11s.61.39,1.07.39c.25,0,.5-.06.73-.17s.43-.27.6-.48l.86.83c-.23.3-.53.54-.92.71s-.81.25-1.29.25Z"/>
    <path class="st3" d="M329.25,497.47v-8.52h1.2v8.52h-1.2ZM329.69,496.58l.08-1.42,3.13-3.77h1.41l-4.61,5.19ZM333.3,497.47l-2.12-3.51.77-.8,2.66,4.31h-1.3Z"/>
    <path class="st3" d="M338.35,492.46v-1.08h2.74v1.08h-2.74ZM340.4,497.5c-.5,0-.86-.14-1.09-.42s-.34-.68-.34-1.2v-6.27h1.2v6.28c0,.14.03.26.09.34s.14.12.26.12h.57v1.14h-.69Z"/>
    <path class="st3" d="M345.06,497.55c-.8,0-1.41-.23-1.85-.69s-.66-1.11-.66-1.95v-.99c0-.83.22-1.48.66-1.93s1.05-.69,1.85-.69,1.41.23,1.85.69.66,1.1.66,1.93v1.01c0,.84-.22,1.48-.66,1.94s-1.05.69-1.85.69ZM345.06,496.42c.42,0,.74-.13.97-.39s.34-.63.34-1.1v-1.01c0-.47-.11-.84-.34-1.1s-.55-.39-.97-.39-.74.13-.97.39-.35.62-.35,1.1v1.01c0,.47.12.84.35,1.1s.55.39.97.39Z"/>
    <path class="st3" d="M354.44,497.55c-.75,0-1.31-.15-1.68-.46s-.56-.78-.56-1.42.17-1.06.51-1.36.85-.45,1.54-.45h1.73l.08.96h-1.8c-.31,0-.54.07-.7.21s-.23.35-.23.64c0,.31.1.54.31.69s.52.22.93.22c.45,0,.79-.05,1.02-.15s.34-.25.34-.46l.12.86c-.11.16-.24.3-.39.4s-.33.18-.54.24-.43.08-.68.08ZM355.93,497.47v-3.86c0-.4-.11-.71-.32-.93s-.51-.33-.91-.33c-.24,0-.47.04-.71.11s-.44.18-.62.31l-.87-.6c.23-.28.53-.49.91-.65s.8-.23,1.26-.23c.76,0,1.35.2,1.77.59s.63.95.63,1.67v3.91h-1.14Z"/>
    <path class="st3" d="M358.41,492.46v-1.08h2.74v1.08h-2.74ZM360.46,497.5c-.5,0-.86-.14-1.09-.42s-.34-.68-.34-1.2v-6.27h1.2v6.28c0,.14.03.26.09.34s.14.12.26.12h.57v1.14h-.69Z"/>
    <path class="st3" d="M364.74,497.55c-.75,0-1.31-.15-1.68-.46s-.56-.78-.56-1.42.17-1.06.51-1.36.85-.45,1.54-.45h1.73l.08.96h-1.8c-.31,0-.54.07-.7.21s-.23.35-.23.64c0,.31.1.54.31.69s.52.22.93.22c.45,0,.79-.05,1.02-.15s.34-.25.34-.46l.12.86c-.11.16-.24.3-.39.4s-.33.18-.54.24-.43.08-.68.08ZM366.23,497.47v-3.86c0-.4-.11-.71-.32-.93s-.51-.33-.91-.33c-.24,0-.47.04-.71.11s-.44.18-.62.31l-.87-.6c.23-.28.53-.49.91-.65s.8-.23,1.26-.23c.76,0,1.35.2,1.77.59s.63.95.63,1.67v3.91h-1.14Z"/>
    <path class="st3" d="M369.18,497.47v-6.08h1.2v6.08h-1.2ZM372.53,492.83c-.11-.13-.24-.23-.4-.29s-.35-.1-.56-.1c-.38,0-.67.1-.88.31s-.31.5-.31.87l-.12-1.17c.18-.36.42-.64.72-.84s.63-.3.99-.3c.28,0,.53.04.75.12s.42.2.59.35l-.78,1.05Z"/>
    <path class="st3" d="M373.83,492.46v-1.08h2.74v1.08h-2.74ZM375.88,497.5c-.5,0-.86-.14-1.09-.42s-.34-.68-.34-1.2v-6.27h1.2v6.28c0,.14.03.26.09.34s.14.12.26.12h.57v1.14h-.69Z"/>
  </g>
  <g>
    <rect class="st2" x="223.28" y="481.51" width="47.34" height="73.89" rx="15.95" ry="15.95"/>
    <g>
      <path class="st0" d="M254.67,486.27c6.18,0,11.2,5.02,11.2,11.2"/>
      <path class="st3" d="M265.87,498.89c-.79,0-1.43-.64-1.43-1.43,0-5.39-4.38-9.77-9.77-9.77-.79,0-1.43-.64-1.43-1.43s.64-1.43,1.43-1.43c6.96,0,12.62,5.66,12.62,12.62,0,.79-.64,1.43-1.43,1.43Z"/>
    </g>
    <rect class="st1" x="244.22" y="490.36" width="5.45" height="16.47" rx="1.75" ry="1.75"/>
  </g>
</svg>