<svg xmlns="http://www.w3.org/2000/svg" width="64" height="64" viewBox="0 0 64 64">
  <rect width="64" height="64" rx="12" fill="#1a1a2e"/>
  <g transform="translate(7.6 20.5) scale(0.512)">
    <polygon fill="#ffffff" points="0 0 0 11.22 33.67 11.22 33.67 16.84 0 16.84 0 28.06 0 44.9 5.61 44.9 11.22 44.9 44.9 44.9 44.9 33.68 11.22 33.68 11.22 28.06 44.9 28.06 44.9 16.84 44.9 11.22 44.9 0 33.67 0 0 0"/>
    <path fill="#ffffff" d="M89.8,5.61h-5.61V0h-33.68v44.9h33.68v-5.61h5.61v-5.61h5.61V11.24h-5.61v-5.63ZM84.19,33.68h-22.45V11.24h22.45v22.44Z"/>
  </g>
</svg>
