<?xml version="1.0" encoding="UTF-8"?>
<svg xmlns="http://www.w3.org/2000/svg" width="1920" height="1080" viewBox="0 0 1920 1080">
  <g transform="translate(960, 540)">
    <path d="M0,-213l12.62111,137.36582l56.53987,-125.82489l-32.66534,134.02103l94.33166,-100.64888l-74.412,116.15298l121.90115,-64.56601l-108.09496,85.69795l136.26076,-21.4864l-130.06416,45.95622l135.8544,23.92158l-137.93888,1.23443l120.72611,66.7373l-130.86579,-43.62114l92.51527,102.32099l-109.61136,-83.74968l54.27896,126.81661l-76.47884,-114.80264l10.16069,137.56969l-35.05865,-133.41496l-35.05865,133.41496l10.16069,-137.56969l-76.47884,114.80264l54.27896,-126.81661l-109.61136,83.74968l92.51527,-102.32099l-130.86579,43.62114l120.72611,-66.7373l-137.93888,-1.23443l135.8544,-23.92158l-130.06416,-45.95622l136.26076,21.4864l-108.09496,-85.69795l121.90115,64.56601l-74.412,-116.15298l94.33166,100.64888l-32.66534,-134.02103l56.53987,125.82489zM12.62111,-75.63418l23.87453,8.19614l19.91966,15.5041l13.80619,21.13195l6.1966,24.46982l-2.08449,25.15601l-10.13969,23.11616l-17.09609,18.57131l-22.19988,12.01397l-24.89796,4.15473l-24.89796,-4.15473l-22.19988,-12.01397l-17.09609,-18.57131l-10.13969,-23.11616l-2.08449,-25.15601l6.1966,-24.46982l13.80619,-21.13195l19.91966,-15.5041l23.87453,-8.19614zM-12.62111,-75.63418l12.62111,-137.36582l12.62111,137.36582M12.62111,-75.63418l56.53987,-125.82489l-32.66534,134.02103M36.49565,-67.43805l94.33166,-100.64888l-74.412,116.15298M56.41531,-51.93395l121.90115,-64.56601l-108.09496,85.69795M70.2215,-30.80201l136.26076,-21.4864l-130.06416,45.95622M76.4181,-6.33218l135.8544,23.92158l-137.93888,1.23443M74.33361,18.82383l120.72611,66.7373l-130.86579,-43.62114M64.19393,41.93998l92.51527,102.32099l-109.61136,-83.74968M47.09783,60.51129l54.27896,126.81661l-76.47884,-114.80264M24.89796,72.52527l10.16069,137.56969l-35.05865,-133.41496M0,76.68l-35.05865,133.41496l10.16069,-137.56969M-24.89796,72.52527l-76.47884,114.80264l54.27896,-126.81661M-47.09783,60.51129l-109.61136,83.74968l92.51527,-102.32099M-64.19393,41.93998l-130.86579,43.62114l120.72611,-66.7373M-74.33361,18.82383l-137.93888,-1.23443l135.8544,-23.92158M-76.4181,-6.33218l-130.06416,-45.95622l136.26076,21.4864M-70.2215,-30.80201l-108.09496,-85.69795l121.90115,64.56601M-56.41531,-51.93395l-74.412,-116.15298l94.33166,100.64888M-36.49565,-67.43805l-32.66534,-134.02103l56.53987,125.82489M0,-213l25.74814,58.69985M25.74814,-154.30015l15.27121,34.81486M41.01935,-119.48529l10.58438,24.12995M51.60373,-95.35534l8.15102,18.58244M59.75475,-76.7729l6.80078,15.50422M66.55553,-61.26868l6.06381,13.8241M72.61934,-47.44458l11.47051,26.15014M84.08985,-21.29444l6.06381,13.8241M90.15367,-7.47035l6.80078,15.50422M96.95445,8.03387l8.15102,18.58244M105.10546,26.61632l10.58438,24.12995M115.68984,50.74627l15.27121,34.81486M130.96105,85.56113l25.74814,58.69985M69.16099,-201.45907l5.29323,63.87974M74.45421,-137.57934l3.13941,37.88705M77.59362,-99.69229l2.1759,26.25927M79.76953,-73.43302l1.67566,20.22223M81.44519,-53.2108l1.39808,16.87237M82.84327,-36.33843l1.24658,15.04399M84.08985,-21.29444l2.35807,28.45772M86.44793,7.16328l1.24658,15.04399M87.69451,22.20727l1.39808,16.87237M89.09259,39.07963l1.67566,20.22223M90.76825,59.30186l2.1759,26.25927M92.94416,85.56113l3.13941,37.88705M96.08357,123.44817l5.29323,63.87974M130.82731,-168.08693l-15.73529,62.13726M115.09202,-105.94966l-9.3326,36.85359M105.75942,-69.09608l-6.46836,25.54298M99.29106,-43.5531l-4.98128,19.67062M94.30978,-23.88248l-4.15612,16.41213M90.15367,-7.47035l-3.70574,14.63363M86.44793,7.16328l-7.0099,27.68147M79.43803,34.84475l-3.70574,14.63363M75.73229,49.47837l-4.15612,16.41213M71.57617,65.89051l-4.98128,19.67062M66.5949,85.56113l-6.46836,25.54298M60.12654,111.10411l-9.3326,36.85359M50.79394,147.95769l-15.73529,62.13726M178.31646,-116.49996l-35.05865,53.66126M143.25781,-62.8387l-20.79327,31.82647M122.46454,-31.01223l-14.41168,22.05872M108.05286,-8.95352l-11.09842,16.98739M96.95445,8.03387l-9.25994,14.17339M87.69451,22.20727l-8.25648,12.63748M79.43803,34.84475l-15.61824,23.9055M63.81978,58.75025l-8.25648,12.63748M55.5633,71.38773l-9.25994,14.17339M46.30337,85.56113l-11.09842,16.98739M35.20495,102.54852l-14.41168,22.05872M20.79327,124.60723l-20.79327,31.82647M0,156.4337l-35.05865,53.66126M206.48226,-52.28841l-50.58285,39.37022M155.8994,-12.91819l-30.00067,23.35046M125.89873,10.43227l-20.79327,16.18405M105.10546,26.61632l-16.01287,12.46332M89.09259,39.07963l-13.3603,10.39874M75.73229,49.47837l-11.91251,9.27188M63.81978,58.75025l-22.53411,17.539M41.28568,76.28925l-11.91251,9.27188M29.37317,85.56113l-13.3603,10.39874M16.01287,95.95987l-16.01287,12.46332M0,108.42318l-20.79327,16.18405M-20.79327,124.60723l-30.00067,23.35046M-50.79394,147.95769l-50.58285,39.37022M212.2725,17.5894l-60.62562,20.8128M151.64687,38.4022l-35.95703,12.34407M115.68984,50.74627l-24.92159,8.55559M90.76825,59.30186l-19.19208,6.58865M71.57617,65.89051l-16.01287,5.49723M55.5633,71.38773l-14.27763,4.90152M41.28568,76.28925l-27.00805,9.27188M14.27763,85.56113l-14.27763,4.90152M0,90.46264l-16.01287,5.49723M-16.01287,95.95987l-19.19208,6.58865M-35.20495,102.54852l-24.92159,8.55559M-60.12654,111.10411l-35.95703,12.34407M-96.08357,123.44817l-60.62562,20.8128M195.05972,85.56113l-64.09867,0M130.96105,85.56113l-38.01689,0M92.94416,85.56113l-26.34926,0M66.5949,85.56113h-20.29153M46.30337,85.56113h-16.93019M29.37317,85.56113l-15.09554,0M14.27763,85.56113h-28.55525M-14.27763,85.56113l-15.09554,0M-29.37317,85.56113h-16.93019M-46.30337,85.56113h-20.29153M-66.5949,85.56113l-26.34926,0M-92.94416,85.56113l-38.01689,0M-130.96105,85.56113l-64.09867,0M156.70919,144.26097l-60.62562,-20.8128M96.08357,123.44817l-35.95703,-12.34407M60.12654,111.10411l-24.92159,-8.55559M35.20495,102.54852l-19.19208,-6.58865M16.01287,95.95987l-16.01287,-5.49723M0,90.46264l-14.27763,-4.90152M-14.27763,85.56113l-27.00805,-9.27188M-41.28568,76.28925l-14.27763,-4.90152M-55.5633,71.38773l-16.01287,-5.49723M-71.57617,65.89051l-19.19208,-6.58865M-90.76825,59.30186l-24.92159,-8.55559M-115.68984,50.74627l-35.95703,-12.34407M-151.64687,38.4022l-60.62562,-20.8128M101.37679,187.32791l-50.58285,-39.37022M50.79394,147.95769l-30.00067,-23.35046M20.79327,124.60723l-20.79327,-16.18405M0,108.42318l-16.01287,-12.46332M-16.01287,95.95987l-13.3603,-10.39874M-29.37317,85.56113l-11.91251,-9.27188M-41.28568,76.28925l-22.53411,-17.539M-63.81978,58.75025l-11.91251,-9.27188M-75.73229,49.47837l-13.3603,-10.39874M-89.09259,39.07963l-16.01287,-12.46332M-105.10546,26.61632l-20.79327,-16.18405M-125.89873,10.43227l-30.00067,-23.35046M-155.8994,-12.91819l-50.58285,-39.37022M35.05865,210.09496l-35.05865,-53.66126M0,156.4337l-20.79327,-31.82647M-20.79327,124.60723l-14.41168,-22.05872M-35.20495,102.54852l-11.09842,-16.98739M-46.30337,85.56113l-9.25994,-14.17339M-55.5633,71.38773l-8.25648,-12.63748M-63.81978,58.75025l-15.61824,-23.9055M-79.43803,34.84475l-8.25648,-12.63748M-87.69451,22.20727l-9.25994,-14.17339M-96.95445,8.03387l-11.09842,-16.98739M-108.05286,-8.95352l-14.41168,-22.05872M-122.46454,-31.01223l-20.79327,-31.82647M-143.25781,-62.8387l-35.05865,-53.66126M-35.05865,210.09496l-15.73529,-62.13726M-50.79394,147.95769l-9.3326,-36.85359M-60.12654,111.10411l-6.46836,-25.54298M-66.5949,85.56113l-4.98128,-19.67062M-71.57617,65.89051l-4.15612,-16.41213M-75.73229,49.47837l-3.70574,-14.63363M-79.43803,34.84475l-7.0099,-27.68147M-86.44793,7.16328l-3.70574,-14.63363M-90.15367,-7.47035l-4.15612,-16.41213M-94.30978,-23.88248l-4.98128,-19.67062M-99.29106,-43.5531l-6.46836,-25.54298M-105.75942,-69.09608l-9.3326,-36.85359M-115.09202,-105.94966l-15.73529,-62.13726M-101.37679,187.32791l5.29323,-63.87974M-96.08357,123.44817l3.13941,-37.88705M-92.94416,85.56113l2.1759,-26.25927M-90.76825,59.30186l1.67566,-20.22223M-89.09259,39.07963l1.39808,-16.87237M-87.69451,22.20727l1.24658,-15.04399M-86.44793,7.16328l2.35807,-28.45772M-84.08985,-21.29444l1.24658,-15.04399M-82.84327,-36.33843l1.39808,-16.87237M-81.44519,-53.2108l1.67566,-20.22223M-79.76953,-73.43302l2.1759,-26.25927M-77.59362,-99.69229l3.13941,-37.88705M-74.45421,-137.57934l5.29323,-63.87974M-156.70919,144.26097l25.74814,-58.69985M-130.96105,85.56113l15.27121,-34.81486M-115.68984,50.74627l10.58438,-24.12995M-105.10546,26.61632l8.15102,-18.58244M-96.95445,8.03387l6.80078,-15.50422M-90.15367,-7.47035l6.06381,-13.8241M-84.08985,-21.29444l11.47051,-26.15014M-72.61934,-47.44458l6.06381,-13.8241M-66.55553,-61.26868l6.80078,-15.50422M-59.75475,-76.7729l8.15102,-18.58244M-51.60373,-95.35534l10.58438,-24.12995M-41.01935,-119.48529l15.27121,-34.81486M-25.74814,-154.30015l25.74814,-58.69985M-195.05972,85.56113l43.41285,-47.15892M-151.64687,38.4022l25.74814,-27.96994M-125.89873,10.43227l17.84587,-19.38578M-108.05286,-8.95352l13.74308,-14.92896M-94.30978,-23.88248l11.46651,-12.45595M-82.84327,-36.33843l10.22393,-11.10615M-72.61934,-47.44458l19.33995,-21.00878M-53.27939,-68.45336l10.22393,-11.10615M-43.05546,-79.55952l11.46651,-12.45595M-31.58895,-92.01547l13.74308,-14.92896M-17.84587,-106.94443l17.84587,-19.38578M0,-126.33021l25.74814,-27.96994M25.74814,-154.30015l43.41285,-47.15892M-212.2725,17.5894l56.37309,-30.50759M-155.8994,-12.91819l33.43486,-18.09404M-122.46454,-31.01223l23.17348,-12.54086M-99.29106,-43.5531l17.84587,-9.6577M-81.44519,-53.2108l14.88966,-8.05788M-66.55553,-61.26868l13.27614,-7.18469M-53.27939,-68.45336l25.1136,-13.5908M-28.1658,-82.04416l13.27614,-7.18469M-14.88966,-89.22885l14.88966,-8.05788M0,-97.28673l17.84587,-9.6577M17.84587,-106.94443l23.17348,-12.54086M41.01935,-119.48529l33.43486,-18.09404M74.45421,-137.57934l56.37309,-30.50759M-206.48226,-52.28841l63.22444,-10.55029M-143.25781,-62.8387l37.49839,-6.25737M-105.75942,-69.09608l25.98989,-4.33695M-79.76953,-73.43302l20.01478,-3.33988M-59.75475,-76.7729l16.69929,-2.78662M-43.05546,-79.55952l14.88966,-2.48465M-28.1658,-82.04416l28.1658,-4.70004M0,-86.7442l14.88966,-2.48465M14.88966,-89.22885l16.69929,-2.78662M31.58895,-92.01547l20.01478,-3.33988M51.60373,-95.35534l25.98989,-4.33695M77.59362,-99.69229l37.49839,-6.25737M115.09202,-105.94966l63.22444,-10.55029M-178.31646,-116.49996l63.22444,10.55029M-115.09202,-105.94966l37.49839,6.25737M-77.59362,-99.69229l25.98989,4.33695M-51.60373,-95.35534l20.01478,3.33988M-31.58895,-92.01547l16.69929,2.78662M-14.88966,-89.22885l14.88966,2.48465M0,-86.7442l28.1658,4.70004M28.1658,-82.04416l14.88966,2.48465M43.05546,-79.55952l16.69929,2.78662M59.75475,-76.7729l20.01478,3.33988M79.76953,-73.43302l25.98989,4.33695M105.75942,-69.09608l37.49839,6.25737M143.25781,-62.8387l63.22444,10.55029M-130.82731,-168.08693l56.37309,30.50759M-74.45421,-137.57934l33.43486,18.09404M-41.01935,-119.48529l23.17348,12.54086M-17.84587,-106.94443l17.84587,9.6577M0,-97.28673l14.88966,8.05788M14.88966,-89.22885l13.27614,7.18469M28.1658,-82.04416l25.1136,13.5908M53.27939,-68.45336l13.27614,7.18469M66.55553,-61.26868l14.88966,8.05788M81.44519,-53.2108l17.84587,9.6577M99.29106,-43.5531l23.17348,12.54086M122.46454,-31.01223l33.43486,18.09404M155.8994,-12.91819l56.37309,30.50759M-69.16099,-201.45907l43.41285,47.15892M-25.74814,-154.30015l25.74814,27.96994M0,-126.33021l17.84587,19.38578M17.84587,-106.94443l13.74308,14.92896M31.58895,-92.01547l11.46651,12.45595M43.05546,-79.55952l10.22393,11.10615M53.27939,-68.45336l19.33995,21.00878M72.61934,-47.44458l10.22393,11.10615M82.84327,-36.33843l11.46651,12.45595M94.30978,-23.88248l13.74308,14.92896M108.05286,-8.95352l17.84587,19.38578M125.89873,10.43227l25.74814,27.96994M151.64687,38.4022l43.41285,47.15892M12.62111,-75.63418l34.40836,-61.35798l-10.53383,69.55412zM36.49565,-67.43805l52.46692,-46.86106l-32.54726,62.36516zM56.41531,-51.93395l64.83988,-27.28602l-51.03369,48.41797zM70.2215,-30.80201l70.18644,-4.75411l-63.98984,29.22393zM76.4181,-6.33218l67.9272,18.29298l-70.01169,6.86303zM74.33361,18.82383l58.307,39.35774l-68.44668,-16.24158zM64.19393,41.93998l42.36833,56.15748l-59.46442,-37.58617zM47.09783,60.51129l21.83839,66.87168l-44.03827,-54.85771zM24.89796,72.52527l-1.05807,70.33931l-23.83988,-66.18457zM0,76.68l-23.83988,66.18457l-1.05807,-70.33931zM-24.89796,72.52527l-44.03827,54.85771l21.83839,-66.87168zM-47.09783,60.51129l-59.46442,37.58617l42.36833,-56.15748zM-64.19393,41.93998l-68.44668,16.24158l58.307,-39.35774zM-74.33361,18.82383l-70.01169,-6.86303l67.9272,-18.29298zM-76.4181,-6.33218l-63.98984,-29.22393l70.18644,4.75411zM-70.2215,-30.80201l-51.03369,-48.41797l64.83988,27.28602zM-56.41531,-51.93395l-32.54726,-62.36516l52.46692,46.86106zM-36.49565,-67.43805l-10.53383,-69.55412l34.40836,61.35798zM-12.62111,-75.63418l12.62111,-69.20582l12.62111,69.20582zM12.62111,-75.63418l51.57281,117.57417M36.49565,-67.43805l10.60218,127.94934M56.41531,-51.93395l-31.51735,124.45922M70.2215,-30.80201l-70.2215,107.48201M76.4181,-6.33218l-101.31605,78.85745M74.33361,18.82383l-121.43144,41.68747M64.19393,41.93998l-128.38785,0M47.09783,60.51129l-121.43144,-41.68747M24.89796,72.52527l-101.31605,-78.85745M0,76.68l-70.2215,-107.48201M-24.89796,72.52527l-31.51735,-124.45922M-47.09783,60.51129l10.60218,-127.94934M-64.19393,41.93998l51.57281,-117.57417M-74.33361,18.82383l86.95473,-94.45801M-76.4181,-6.33218l112.91375,-61.10586M-70.2215,-30.80201l126.63681,-21.13195M-56.41531,-51.93395l126.63681,21.13195M-36.49565,-67.43805l112.91375,61.10586M-12.62111,-75.63418l86.95473,94.45801" fill="none" stroke="#000000" stroke-width="1" />
  </g>
</svg>